<?xml version="1.0" encoding="UTF-8" standalone="no"?>
<!DOCTYPE svg PUBLIC "-//W3C//DTD SVG 1.1//EN" "http://www.w3.org/Graphics/SVG/1.1/DTD/svg11.dtd">
<svg width="100%" height="100%" viewBox="0 0 104 104" version="1.1" xmlns="http://www.w3.org/2000/svg" xmlns:xlink="http://www.w3.org/1999/xlink" xml:space="preserve" xmlns:serif="http://www.serif.com/" style="fill-rule:evenodd;clip-rule:evenodd;stroke-linecap:round;stroke-linejoin:round;stroke-miterlimit:1.5;">
    <g transform="matrix(1,0,0,1,-476.87,-364.592)">
        <g id="container">
            <g transform="matrix(0.483388,0,0,0.432505,256.662,208.039)">
                <path d="M600.253,378.152L600.253,470.637C600.253,477.017 595.619,482.197 589.91,482.197L507.161,482.197C501.452,482.197 496.817,477.017 496.817,470.637L496.817,378.152C496.817,371.772 501.452,366.592 507.161,366.592L589.91,366.592C595.619,366.592 600.253,371.772 600.253,378.152Z" style="fill:none;stroke:rgb(193,192,188);stroke-width:8.72px;"/>
            </g>
            <g transform="matrix(0.483388,0,0,0.432505,238.715,258.039)">
                <path d="M600.253,378.152L600.253,470.637C600.253,477.017 595.619,482.197 589.91,482.197L507.161,482.197C501.452,482.197 496.817,477.017 496.817,470.637L496.817,378.152C496.817,371.772 501.452,366.592 507.161,366.592L589.91,366.592C595.619,366.592 600.253,371.772 600.253,378.152Z" style="fill:none;stroke:rgb(193,192,188);stroke-width:8.72px;"/>
            </g>
            <g transform="matrix(0.483388,0,0,0.432505,288.715,258.039)">
                <path d="M600.253,378.152L600.253,470.637C600.253,477.017 595.619,482.197 589.91,482.197L507.161,482.197C501.452,482.197 496.817,477.017 496.817,470.637L496.817,378.152C496.817,371.772 501.452,366.592 507.161,366.592L589.91,366.592C595.619,366.592 600.253,371.772 600.253,378.152Z" style="fill:none;stroke:rgb(193,192,188);stroke-width:8.72px;"/>
            </g>
        </g>
    </g>
</svg>
